#!OML:ASF H:\Terrain\Patient Classification 1\Terrain2\Thursday\justin.ASF
:FULLY-SPECIFIED
:DEGREES
1944
root -12.4268 17.7382 -1.0791 1215.83 -251.403 -220.465
lowerback 17.2955 1.70593 12.8411
upperback 6.61802 5.01917 5.3254
thorax -1.91837 2.81073 -2.42935
lowerneck -13.0376 -1.50267 -8.16597
upperneck 35.8396 0.785486 2.14387
head 14.5315 -0.0290079 2.56845
rclavicle 8.64713e-014 7.71285e-014
rhumerus -25.326 6.55264 -86.4516
rradius 41.6632
rwrist -14.2886
rhand -21.4959 10.6048
rfingers 7.12502
rthumb 4.89554 -19.3186
lclavicle 8.64713e-014 7.71285e-014
lhumerus -33.2854 13.9075 82.0423
lradius 34.0725
lwrist 5.56299
lhand -18.8082 22.5925
lfingers 7.12502
lthumb 7.49025 52.4399
rfemur 18.7907 -8.99766 32.2271
rtibia 9.39727
rfoot -4.63797 3.75055
rtoes -12.143
lfemur -82.2011 15.0646 -9.90732
ltibia 95.0537
lfoot -2.1476 -15.2686
ltoes 6.3809
1945
root -12.362 17.6978 -1.06938 1214.82 -251.245 -221.489
lowerback 17.4298 1.77079 13.1193
upperback 6.64094 5.18001 5.3698
thorax -1.91982 2.89688 -2.56404
lowerneck -12.8636 -1.65942 -7.98037
upperneck 35.5729 0.413797 2.26192
head 14.3876 -0.144317 2.51647
rclavicle -4.47266e-014 1.03368e-014
rhumerus -25.4673 6.14108 -86.4941
rradius 41.7193
rwrist -14.6264
rhand -21.6444 10.7116
rfingers 7.12502
rthumb 4.7521 -19.2151
lclavicle -4.47266e-014 1.03368e-014
lhumerus -33.0321 13.3717 82.2883
lradius 33.8461
lwrist 5.48403
lhand -18.9751 22.5695
lfingers 7.12502
lthumb 7.32916 52.4226
rfemur 18.9603 -8.39817 32.9255
rtibia 9.46671
rfoot -4.83994 2.67502
rtoes -11.515
lfemur -82.1894 15.2871 -9.74256
ltibia 95.057
lfoot -1.68155 -15.2707
ltoes 4.11249
1946
root -12.2938 17.6572 -1.09743 1213.05 -250.848 -223.886
lowerback 17.0529 1.46945 14.1295
upperback 6.57601 4.907 5.5308
thorax -1.74317 2.78603 -2.867
lowerneck -13.0629 -1.56891 -8.0348
upperneck 35.5359 0.587027 2.20131
head 14.4055 -0.0909543 2.52722
rclavicle 1.2921e-014 -7.95139e-016
rhumerus -25.4555 6.61909 -86.5118
rradius 41.7221
rwrist -14.5594
rhand -21.3747 10.5038
rfingers 7.12502
rthumb 5.0126 -19.4169
lclavicle 1.2921e-014 -7.95139e-016
lhumerus -32.8876 13.7862 82.4939
lradius 33.6544
lwrist 5.68198
lhand -18.3307 21.8902
lfingers 7.12502
lthumb 7.9512 51.7207
rfemur 18.3371 -7.82608 34.0761
rtibia 10.0123
rfoot -5.34092 1.51192
rtoes -12.4563
lfemur -82.889 15.3225 -9.13005
ltibia 95.2902
lfoot -0.579323 -15.6324
ltoes 6.42617
1947
root -12.2375 17.6551 -1.08076 1215.47 -252.362 -221.193
lowerback 17.2916 1.34311 12.0553
upperback 6.75459 4.40716 5.29433
thorax -1.91499 2.5063 -1.93536
lowerneck -13.4301 -1.46169 -8.46253
upperneck 35.5239 0.887044 2.19902
head 14.4679 -0.0290151 2.64947
rclavicle -1.49089e-014 -1.19271e-014
rhumerus -25.2333 7.06183 -86.4459
rradius 41.4018
rwrist -14.0074
rhand -21.0382 10.5664
rfingers 7.12502
rthumb 5.33745 -19.3464
lclavicle -1.49089e-014 -1.19271e-014
lhumerus -32.6584 14.7278 82.6101
lradius 33.4219
lwrist 5.58815
lhand -17.8502 21.6474
lfingers 7.12502
lthumb 8.4149 51.4597
rfemur 18.1462 -7.80416 32.5449
rtibia 11.1168
rfoot -6.21457 0.574422
rtoes -15.2404
lfemur -82.2739 14.7437 -10.9887
ltibia 95.1939
lfoot -0.42118 -16.0427
ltoes 9.69626
1948
root -12.1692 17.622 -1.07739 1216.23 -252.944 -220.498
lowerback 17.3376 1.36201 11.5116
upperback 6.80945 4.33547 5.16816
thorax -1.9251 2.4644 -1.76412
lowerneck -13.4453 -1.52395 -8.72037
upperneck 35.2555 0.756379 2.42778
head 14.3539 -0.0882851 2.75891
rclavicle -4.6118e-014 -1.19271e-014
rhumerus -25.1453 6.7322 -86.3388
rradius 41.0768
rwrist -13.689
rhand -21.2399 10.9988
rfingers 7.12502
rthumb 5.14268 -18.9188
lclavicle -4.6118e-014 -1.19271e-014
lhumerus -32.2713 14.8479 82.775
lradius 33.0824
lwrist 4.88203
lhand -17.7913 21.9201
lfingers 7.12502
lthumb 8.47173 51.7302
rfemur 17.8265 -7.44259 32.2714
rtibia 12.0266
rfoot -6.90366 -0.595931
rtoes -16.665
lfemur -82.0563 14.478 -11.7952
ltibia 95.2767
lfoot -1.6119 -16.6728
ltoes 9.16339
